<svg xmlns="http://www.w3.org/2000/svg" width="260" height="126" viewBox="0 0 480 232" fill="none"><path d="M178.429 82.4282C180.456 137.377 140.62 204.408 89.5936 205.884C60.3545 206.731 41.3888 190.151 40.0784 154.482C38.0517 99.5331 77.6166 32.5112 128.643 31.0348C157.873 30.1874 177.11 46.7594 178.429 82.4282ZM163.761 68.3372C162.905 45.1695 153.506 31.821 129.936 32.5024C119.724 32.7995 110.193 37.3771 101.291 44.8113C71.056 70.7919 53.0862 131.078 54.4752 168.573C55.3313 191.741 64.7312 205.089 88.3007 204.408C98.775 204.102 108.306 199.524 116.946 192.099C147.163 165.638 165.15 105.832 163.761 68.3372Z" fill="#E9E3DA"></path><path d="M244.42 36.4775C244.647 36.4775 244.787 36.6871 244.708 36.8968C243.756 39.2904 238.907 51.6168 233.875 67.1405L199.194 173.002C195.918 183.302 193.105 191.025 193.105 196.406C193.105 200.852 195.158 202.259 197.796 202.32C206.148 202.53 218.64 180.419 227.987 155.88C228.075 155.653 228.223 155.286 228.337 155.024C228.459 154.727 228.695 154.255 229.071 154.22C229.612 154.159 229.569 154.674 229.42 155.076C229.272 155.478 229.132 155.862 229.009 156.177C219.68 180.672 207.694 205.072 194.983 205.072C187.496 205.072 182.578 200.389 182.578 191.496C182.578 184.01 186.326 172.766 188.894 164.581L225.681 51.6867C226.38 49.5814 227.446 45.4842 227.76 43.4051C228.346 39.4914 227.227 38.1985 220.894 37.7879C215.914 37.4559 209.083 37.386 207.869 37.386C207.79 37.386 207.72 37.3249 207.79 37.2026C207.886 37.0366 208.131 36.7745 208.297 36.5736C208.393 36.46 208.471 36.4775 208.585 36.4688C208.882 36.4688 240.27 36.4688 244.428 36.4688L244.42 36.4775Z" fill="#E9E3DA"></path><path d="M299.422 36.4766C299.649 36.4766 299.789 36.6862 299.71 36.8959C298.758 39.2895 293.909 51.6159 288.877 67.1396L254.196 173.001C250.92 183.301 248.107 191.024 248.107 196.405C248.107 200.852 250.16 202.258 252.798 202.319C261.15 202.529 273.642 180.418 282.989 155.879C283.077 155.652 283.225 155.285 283.339 155.023C283.461 154.726 283.697 154.254 284.073 154.219C284.614 154.158 284.571 154.673 284.422 155.075C284.274 155.477 284.134 155.862 284.011 156.176C274.682 180.672 262.696 205.071 249.985 205.071C242.498 205.071 237.58 200.389 237.58 191.495C237.58 184.009 241.328 172.766 243.896 164.58L280.692 51.6945C281.391 49.5892 282.456 45.492 282.771 43.4129C283.356 39.4992 282.238 38.2063 275.905 37.7957C270.925 37.4637 264.094 37.3938 262.879 37.3938C262.801 37.3938 262.731 37.3327 262.801 37.2104C262.897 37.0444 263.141 36.7823 263.307 36.5814C263.403 36.4678 263.482 36.4853 263.596 36.4766C263.893 36.4766 295.281 36.4766 299.439 36.4766H299.422Z" fill="#E9E3DA"></path><path d="M439.999 125.953C439.999 160.591 415.652 205.066 383.591 205.066C365.333 205.066 355.27 192.896 355.27 171.362C355.27 136.725 379.617 92.25 411.677 92.25C429.935 92.25 439.999 104.419 439.999 125.953ZM429.944 113.801C429.944 102.261 426.022 93.7176 412.402 93.7176C406.864 93.7176 401.552 96.4869 396.704 100.872C377.319 119.104 365.316 166.427 365.316 183.505C365.316 195.046 369.238 203.589 382.858 203.589C388.396 203.589 393.708 200.82 398.556 196.207C418.177 178.439 429.944 130.889 429.944 113.81V113.801Z" fill="#E9E3DA"></path><path d="M344.465 55.9922C349.619 55.9922 353.594 60.2029 353.594 65.1212C353.594 70.2667 349.61 74.2502 344.465 74.2502C339.319 74.2502 335.336 70.2667 335.336 65.1212C335.336 60.2029 339.319 55.9922 344.465 55.9922Z" fill="#E9E3DA"></path><path d="M343.652 155.069C343.504 155.471 343.347 155.855 343.224 156.161C333.894 180.665 321.917 205.073 309.198 205.073C305.747 205.073 302.594 203.702 300.707 202.129C298.82 200.557 298.392 199.378 298.007 198.53C297.221 196.827 296.758 194.739 296.758 192.197C296.758 184.011 300.969 173.24 304.97 163.639L320.887 124.31C323.228 118.736 326.18 110.988 327.919 105.073C328.653 102.566 329.011 100.994 328.993 98.8971C328.959 95.6211 326.539 93.6905 323.831 94.005C322.11 94.2059 320.223 95.1319 318.738 96.0754C310.622 101.238 301.073 116.465 292.704 137.029C292.626 137.257 292.46 137.606 292.329 137.885C292.198 138.165 291.953 138.637 291.578 138.654C291.045 138.715 291.106 138.209 291.263 137.807C291.42 137.405 291.56 137.029 291.691 136.697C301.563 112.429 313.522 92.2578 326.224 92.2578C329.142 92.2578 331.649 92.9916 333.65 94.4331C333.702 94.4593 333.728 94.4855 333.781 94.5379C333.982 94.6689 334.165 94.7912 334.34 94.9659C334.593 95.1669 334.847 95.394 335.1 95.6473C337.231 97.6217 338.673 100.714 338.673 105.126C338.673 113.538 334.209 124.31 330.461 133.684L314.544 172.986C311.557 180.132 306.97 190.677 306.839 196.809C306.988 200.915 309.102 202.557 312.02 202.313C313.758 202.164 315.863 201.02 317.943 199.325C325.822 192.922 334.812 175.293 342.211 155.881C342.29 155.654 342.464 155.296 342.569 155.017C342.7 154.711 342.927 154.257 343.303 154.204C343.862 154.152 343.81 154.658 343.661 155.069H343.652Z" fill="#E9E3DA"></path><line y1="30.6" x2="480" y2="30.6" stroke="#191919" stroke-opacity="0.3" stroke-width="0.8"></line><line x1="167.62" y1="231.876" x2="242.62" y2="0.876457" stroke="url(#paint0_linear_3003_26649)" stroke-width="0.8" class="text"></line><line x1="222.62" y1="231.876" x2="297.62" y2="0.876457" stroke="url(#paint1_linear_3003_26649)" stroke-width="0.8" class="text"></line><line x1="287.63" y1="204.847" x2="339.63" y2="78.8474" stroke="url(#paint2_linear_3003_26649)" stroke-width="0.8" class="text"></line><line y1="27.6" x2="480" y2="27.6" stroke="#191919" stroke-opacity="0.3" stroke-width="0.8"></line><line y1="205.6" x2="480" y2="205.6" stroke="#191919" stroke-opacity="0.3" stroke-width="0.8"></line><line y1="208.6" x2="480" y2="208.6" stroke="#191919" stroke-opacity="0.3" stroke-width="0.8"></line><path d="M329 101.169C329 108.539 323.828 118 317.016 118C313.136 118 311 115.408 311 110.831C311 103.461 316.172 94 322.984 94C326.864 94 329 96.5919 329 101.169Z" stroke="url(#paint3_linear_3003_26649)" stroke-width="0.8" stroke-miterlimit="10" class="text"></path><path d="M328 174.144C328 187.656 319.092 205 307.361 205C300.678 205 297 200.248 297 191.856C297 178.344 305.908 161 317.639 161C324.322 161 328 165.752 328 174.144Z" stroke="url(#paint4_linear_3003_26649)" stroke-width="0.8" stroke-miterlimit="10" class="text"></path><path d="M440 126.457C440 160.85 415.576 205 383.408 205C365.085 205 355 192.905 355 171.543C355 137.15 379.424 93 411.592 93C429.915 93 440 105.095 440 126.457Z" stroke="url(#paint5_linear_3003_26649)" stroke-width="0.8" stroke-miterlimit="10" class="text2"></path><path d="M179 82.9785C179 136.411 139.06 205 86.456 205C56.4915 205 40 186.209 40 153.021C40 99.5895 79.9405 31 132.544 31C162.508 31 179 49.7912 179 82.9785Z" stroke="url(#paint6_linear_3003_26649)" stroke-width="0.8" stroke-miterlimit="10" class="text2"></path><path d="M269 174.144C269 187.656 260.092 205 248.361 205C241.678 205 238 200.248 238 191.856C238 178.344 246.908 161 258.639 161C265.322 161 269 165.752 269 174.144Z" stroke="url(#paint7_linear_3003_26649)" stroke-width="0.8" stroke-miterlimit="10" class="text"></path><path d="M214 174.144C214 187.656 205.092 205 193.361 205C186.678 205 183 200.248 183 191.856C183 178.344 191.908 161 203.639 161C210.322 161 214 165.752 214 174.144Z" stroke="url(#paint8_linear_3003_26649)" stroke-width="0.8" stroke-miterlimit="10" class="text"></path><defs><linearGradient id="paint0_linear_3003_26649" x1="243.476" y1="1.15438" x2="168.476" y2="232.154" gradientUnits="userSpaceOnUse"><stop stop-color="#191919" stop-opacity="0"></stop><stop offset="0.5" stop-color="#191919" stop-opacity="0.3"></stop><stop offset="1" stop-color="#191919" stop-opacity="0"></stop></linearGradient><linearGradient id="paint1_linear_3003_26649" x1="298.476" y1="1.15438" x2="223.476" y2="232.154" gradientUnits="userSpaceOnUse"><stop stop-color="#191919" stop-opacity="0"></stop><stop offset="0.5" stop-color="#191919" stop-opacity="0.3"></stop><stop offset="1" stop-color="#191919" stop-opacity="0"></stop></linearGradient><linearGradient id="paint2_linear_3003_26649" x1="340.462" y1="79.1907" x2="288.462" y2="205.191" gradientUnits="userSpaceOnUse"><stop stop-color="#191919" stop-opacity="0"></stop><stop offset="0.5" stop-color="#191919" stop-opacity="0.3"></stop><stop offset="1" stop-color="#191919" stop-opacity="0"></stop></linearGradient><linearGradient id="paint3_linear_3003_26649" x1="327.317" y1="95.931" x2="310.663" y2="113.716" gradientUnits="userSpaceOnUse"><stop stop-color="#191919" stop-opacity="0.15"></stop><stop offset="0.25" stop-color="#191919" stop-opacity="0.3"></stop><stop offset="0.5" stop-color="#191919" stop-opacity="0.4"></stop><stop offset="0.75" stop-color="#191919" stop-opacity="0.3"></stop><stop offset="1" stop-color="#191919" stop-opacity="0.15"></stop></linearGradient><linearGradient id="paint4_linear_3003_26649" x1="325.101" y1="164.54" x2="294.504" y2="195.236" gradientUnits="userSpaceOnUse"><stop stop-color="#191919" stop-opacity="0.15"></stop><stop offset="0.25" stop-color="#191919" stop-opacity="0.3"></stop><stop offset="0.5" stop-color="#191919" stop-opacity="0.4"></stop><stop offset="0.75" stop-color="#191919" stop-opacity="0.3"></stop><stop offset="1" stop-color="#191919" stop-opacity="0.15"></stop></linearGradient><linearGradient id="paint5_linear_3003_26649" x1="432.05" y1="102.011" x2="354.401" y2="185.924" gradientUnits="userSpaceOnUse"><stop stop-color="#191919" stop-opacity="0.15"></stop><stop offset="0.25" stop-color="#191919" stop-opacity="0.3"></stop><stop offset="0.5" stop-color="#191919" stop-opacity="0.4"></stop><stop offset="0.75" stop-color="#191919" stop-opacity="0.3"></stop><stop offset="1" stop-color="#191919" stop-opacity="0.15"></stop></linearGradient><linearGradient id="paint6_linear_3003_26649" x1="166" y1="45" x2="46" y2="181.5" gradientUnits="userSpaceOnUse"><stop stop-color="#191919" stop-opacity="0.15"></stop><stop offset="0.25" stop-color="#191919" stop-opacity="0.3"></stop><stop offset="0.5" stop-color="#191919" stop-opacity="0.4"></stop><stop offset="0.75" stop-color="#191919" stop-opacity="0.3"></stop><stop offset="1" stop-color="#191919" stop-opacity="0.15"></stop></linearGradient><linearGradient id="paint7_linear_3003_26649" x1="266.101" y1="164.54" x2="235.504" y2="195.236" gradientUnits="userSpaceOnUse"><stop stop-color="#191919" stop-opacity="0.15"></stop><stop offset="0.25" stop-color="#191919" stop-opacity="0.3"></stop><stop offset="0.5" stop-color="#191919" stop-opacity="0.4"></stop><stop offset="0.75" stop-color="#191919" stop-opacity="0.3"></stop><stop offset="1" stop-color="#191919" stop-opacity="0.15"></stop></linearGradient><linearGradient id="paint8_linear_3003_26649" x1="211.101" y1="164.54" x2="180.504" y2="195.236" gradientUnits="userSpaceOnUse"><stop stop-color="#191919" stop-opacity="0.15"></stop><stop offset="0.25" stop-color="#191919" stop-opacity="0.3"></stop><stop offset="0.5" stop-color="#191919" stop-opacity="0.4"></stop><stop offset="0.75" stop-color="#191919" stop-opacity="0.3"></stop><stop offset="1" stop-color="#191919" stop-opacity="0.15"></stop></linearGradient></defs></svg>